<svg xmlns="http://www.w3.org/2000/svg" 
version="1.1" 
xmlns:xlink="http://www.w3.org/1999/xlink" 
xmlns:svgjs="http://svgjs.dev/svgjs" 
width="1000" height="1000" 
viewBox="0 0 1000 1000">
<rect width="1000" height="1000" fill="#25ada4">
</rect>
<g transform="matrix(0.7,0,0,0.7,149.5757575757575,344.96678029300057)">
<svg viewBox="0 0 396 176" data-background-color="#25ada4" 
preserveAspectRatio="xMidYMid meet" height="444" width="1000" 
xmlns="http://www.w3.org/2000/svg" xmlns:xlink="http://www.w3.org/1999/xlink">
<g id="tight-bounds" transform="matrix(1,0,0,1,0.24000000000003752,-0.20770055202090987)">
<svg viewBox="0 0 395.5199999999999 176.41540110404182" 
height="176.41540110404182" width="395.5199999999999"><g>
<svg viewBox="0 0 554.2177348923077 247.2" height="176.41540110404182" width="395.5199999999999"><g>
<svg viewBox="0 0 306.4646153846154 247.2" height="247.2" width="306.4646153846154"><g id="textblocktransform"><svg viewBox="0 0 306.4646153846154 247.2" height="247.2" width="306.4646153846154" id="textblock"><g><svg viewBox="0 0 306.4646153846154 247.2" height="247.2" width="306.4646153846154"><g transform="matrix(1,0,0,1,0,0)"><svg width="306.4646153846154" viewBox="2 -38 48.35 39" height="247.2" data-palette-color="#374151"><path d="M24.45-35.55Q24.3-34.6 24.3-33.1L24.3-33.1Q24.3-30.15 25-28.5L25-28.5 24.2-28.5Q23.65-29.55 23.4-31.25L23.4-31.25Q23.05-33.05 22.45-34.08 21.85-35.1 20-35.8 18.15-36.5 14.45-36.5L14.45-36.5Q10.85-36.5 9.65-34.7L9.65-34.7Q9.5-34.35 9.5-34L9.5-34 9.5-21.25 15.15-21.25Q16.6-21.25 17.18-21.33 17.75-21.4 18.05-21.75 18.35-22.1 18.35-22.95L18.35-22.95Q18.35-24.45 18.18-25.2 18-25.95 17.15-25.95L17.15-25.95 17.15-26.6 19.1-26.6 19.1-15 17.15-15 17.15-15.7Q18-15.7 18.18-16.53 18.35-17.35 18.35-18.9L18.35-18.9Q18.35-19.7 17.65-20 16.95-20.3 15.15-20.3L15.15-20.3 9.5-20.3 9.5-3Q9.5-2 10.03-1.48 10.55-0.95 11.5-0.95L11.5-0.95Q12.3-0.95 13.25-1.25L13.25-1.25 13.25 0 2 0 2-1.25Q2.95-0.95 3.75-0.95L3.75-0.95Q4.7-0.95 5.23-1.48 5.75-2 5.75-3L5.75-3 5.75-34Q5.75-35 5.23-35.52 4.7-36.05 3.75-36.05L3.75-36.05Q2.95-36.05 2-35.75L2-35.75 2-37 24.6-37 24.45-35.55ZM39.9 1Q36.25 1 34.07-0.23 31.9-1.45 30.3-3.9L30.3-3.9 29.6-0.95 28.6-0.95 28.6-14.55 29.95-14.55Q29.95-7.75 32.32-3.8 34.7 0.15 39.4 0.15L39.4 0.15Q41.6 0.15 43.25-1.07 44.9-2.3 45.75-4.3 46.6-6.3 46.6-8.55L46.6-8.55Q46.6-11.3 45.37-13.13 44.15-14.95 42.35-16 40.55-17.05 37.6-18.3L37.6-18.3Q34.55-19.6 32.75-20.68 30.95-21.75 29.72-23.58 28.5-25.4 28.5-28.2L28.5-28.2Q28.5-31 29.82-33.25 31.15-35.5 33.42-36.75 35.7-38 38.55-38L38.55-38Q40.3-38 42.02-37.4 43.75-36.8 44.95-35.88 46.15-34.95 46.4-34.05L46.4-34.05 46.95-37.9 47.9-37.9 47.9-27.95 46.75-27.95Q46.75-30.2 45.95-32.25 45.15-34.3 43.47-35.6 41.8-36.9 39.35-36.9L39.35-36.9Q36.2-36.9 34.22-34.8 32.25-32.7 32.25-28.95L32.25-28.95Q32.25-26.8 33.35-25.33 34.45-23.85 36.07-22.9 37.7-21.95 40.45-20.7L40.45-20.7Q43.65-19.25 45.62-18.03 47.6-16.8 48.97-14.73 50.35-12.65 50.35-9.55L50.35-9.55Q50.35-7.05 48.9-4.58 47.45-2.1 45.05-0.55 42.65 1 39.9 1L39.9 1Z" opacity="1" transform="matrix(1,0,0,1,0,0)" fill="#374151" class="wordmark-text-0" data-fill-palette-color="primary" id="text-0"></path></svg></g></svg></g></svg></g></svg></g><g transform="matrix(1,0,0,1,364.8226025846154,28.90243384615384)"><svg viewBox="0 0 189.3951323076923 189.3951323076923" height="189.3951323076923" width="189.3951323076923"><g data-palette-color="#374151"><rect width="51.768002830769234" height="189.3951323076923" fill="#374151" stroke="transparent" data-fill-palette-color="accent" x="0" fill-opacity="1"></rect><rect width="51.768002830769234" height="189.3951323076923" fill="#374151" stroke="transparent" data-fill-palette-color="accent" x="63.13171076923077" fill-opacity="0.75"></rect><rect width="51.768002830769234" height="189.3951323076923" fill="#374151" stroke="transparent" data-fill-palette-color="accent" x="126.26342153846154" fill-opacity="0.5"></rect></g></svg></g></svg></g><defs></defs></svg><rect width="395.5199999999999" height="176.41540110404182" fill="none" stroke="none" visibility="hidden"></rect></g></svg></g></svg>